<svg
	xmlns="http://www.w3.org/2000/svg"
	xmlns:xlink="http://www.w3.org/1999/xlink"
>
	<defs>
		<symbol viewBox="0 0 32 32" id="add-large">
			<path
				fill="var(--fill, currentColor)"
				d="M17 15V5h-2v10H5v2h10v10h2V17h10v-2z"
			></path>
		</symbol>

		<symbol viewBox="0 0 32 32" id="trash-can">
			<path
				fill="var(--fill, currentColor)"
				d="M12 12h2v12h-2zm6 0h2v12h-2z"
			></path>
			<path
				fill="var(--fill, currentColor)"
				d="M4 6v2h2v20a2 2 0 0 0 2 2h16a2 2 0 0 0 2-2V8h2V6zm4 22V8h16v20zm4-26h8v2h-8z"
			></path>
		</symbol>

		<symbol viewBox="0 0 32 32" id="arrow-shift-down">
			<path
				fill="var(--fill, currentColor)"
				d="M23 6v10h5a1 1 0 0 1 .707 1.707l-12 12a1 1 0 0 1-1.414 0l-12-12A1 1 0 0 1 4 16h5V6a2.002 2.002 0 0 1 2-2h10a2.003 2.003 0 0 1 2 2m-7 21.586L25.586 18H21V6H11v12H6.414Z"
			></path>
		</symbol>

		<symbol viewBox="0 0 32 32" id="close-large">
			<path
				fill="var(--fill, currentColor)"
				d="M17.414 16L26 7.414L24.586 6L16 14.586L7.414 6L6 7.414L14.586 16L6 24.586L7.414 26L16 17.414L24.586 26L26 24.586z"
			></path>
		</symbol>

		<symbol viewBox="0 0 24 24" id="follows">
			<path
				fill="var(--fill, currentColor)"
				d="M11.5 4a3.5 3.5 0 1 0 0 7a3.5 3.5 0 0 0 0-7M6 7.5a5.5 5.5 0 1 1 11 0a5.5 5.5 0 0 1-11 0M8 16a4 4 0 0 0-4 4h7.05v2H2v-2a6 6 0 0 1 6-6h3v2zm8.248 3v-2h2.5v2z"
			></path>
			<path
				fill="#888888"
				d="M17.5 22.5c4.418 0 6.09-4.5 6.09-4.5s-1.674-4.5-6.09-4.5c-4.417 0-6.09 4.5-6.09 4.5s1.671 4.5 6.09 4.5m-.002-2c-2.616 0-3.87-2.5-3.87-2.5s1.25-2.5 3.87-2.5s3.87 2.5 3.87 2.5s-1.254 2.5-3.87 2.5"
			></path>
		</symbol>

		<symbol viewBox="0 0 32 32" id="friendship">
			<path
				fill="var(--fill, currentColor)"
				d="M25 10H7a3.003 3.003 0 0 0-3 3v6a2.002 2.002 0 0 0 2 2v7a2.002 2.002 0 0 0 2 2h4a2.002 2.002 0 0 0 2-2V16h-2v12H8v-9H6v-6a1 1 0 0 1 1-1h18a1 1 0 0 1 1 1v6h-2v9h-4V16h-2v12a2.002 2.002 0 0 0 2 2h4a2.002 2.002 0 0 0 2-2v-7a2.002 2.002 0 0 0 2-2v-6a3.003 3.003 0 0 0-3-3M10 9a4 4 0 1 1 4-4a4.004 4.004 0 0 1-4 4m0-6a2 2 0 1 0 2 2a2.002 2.002 0 0 0-2-2m12 6a4 4 0 1 1 4-4a4.004 4.004 0 0 1-4 4m0-6a2 2 0 1 0 2 2a2.002 2.002 0 0 0-2-2"
			></path>
		</symbol>

		<symbol viewBox="0 0 24 24" id="login">
			<path
				fill="var(--fill, currentColor)"
				d="M10 11V8l5 4l-5 4v-3H1v-2zm-7.542 4h2.124A8.003 8.003 0 0 0 20 12A8 8 0 0 0 4.582 9H2.458C3.732 4.943 7.522 2 12 2c5.523 0 10 4.477 10 10s-4.477 10-10 10c-4.478 0-8.268-2.943-9.542-7"
			></path>
		</symbol>

		<symbol viewBox="0 0 24 24" id="logout">
			<path
				fill="var(--fill, currentColor)"
				d="M12 22C6.477 22 2 17.523 2 12S6.477 2 12 2a9.985 9.985 0 0 1 8 4h-2.71a8 8 0 1 0 .001 12h2.71A9.985 9.985 0 0 1 12 22m7-6v-3h-8v-2h8V8l5 4z"
			></path>
		</symbol>

		<symbol viewBox="0 0 32 32" id="settings">
			<path
				fill="var(--fill, currentColor)"
				d="M27 16.76v-1.53l1.92-1.68A2 2 0 0 0 29.3 11l-2.36-4a2 2 0 0 0-1.73-1a2 2 0 0 0-.64.1l-2.43.82a11.35 11.35 0 0 0-1.31-.75l-.51-2.52a2 2 0 0 0-2-1.61h-4.68a2 2 0 0 0-2 1.61l-.51 2.52a11.48 11.48 0 0 0-1.32.75l-2.38-.86A2 2 0 0 0 6.79 6a2 2 0 0 0-1.73 1L2.7 11a2 2 0 0 0 .41 2.51L5 15.24v1.53l-1.89 1.68A2 2 0 0 0 2.7 21l2.36 4a2 2 0 0 0 1.73 1a2 2 0 0 0 .64-.1l2.43-.82a11.35 11.35 0 0 0 1.31.75l.51 2.52a2 2 0 0 0 2 1.61h4.72a2 2 0 0 0 2-1.61l.51-2.52a11.48 11.48 0 0 0 1.32-.75l2.42.82a2 2 0 0 0 .64.1a2 2 0 0 0 1.73-1l2.28-4a2 2 0 0 0-.41-2.51ZM25.21 24l-3.43-1.16a8.86 8.86 0 0 1-2.71 1.57L18.36 28h-4.72l-.71-3.55a9.36 9.36 0 0 1-2.7-1.57L6.79 24l-2.36-4l2.72-2.4a8.9 8.9 0 0 1 0-3.13L4.43 12l2.36-4l3.43 1.16a8.86 8.86 0 0 1 2.71-1.57L13.64 4h4.72l.71 3.55a9.36 9.36 0 0 1 2.7 1.57L25.21 8l2.36 4l-2.72 2.4a8.9 8.9 0 0 1 0 3.13L27.57 20Z"
			></path>
			<path
				fill="var(--fill, currentColor)"
				d="M16 22a6 6 0 1 1 6-6a5.94 5.94 0 0 1-6 6m0-10a3.91 3.91 0 0 0-4 4a3.91 3.91 0 0 0 4 4a3.91 3.91 0 0 0 4-4a3.91 3.91 0 0 0-4-4"
			></path>
		</symbol>

		<symbol viewBox="0 0 32 32" id="settings-edit">
			<path
				fill="var(--fill, currentColor)"
				d="m31.707 19.293l-3-3a1 1 0 0 0-1.414 0L18 25.586V30h4.414l9.293-9.293a1 1 0 0 0 0-1.414M21.586 28H20v-1.586l5-5L26.586 23zM28 21.586L26.414 20L28 18.414L29.586 20zM16 22c-3.364 0-6-2.636-6-6s2.636-6 6-6s6 2.636 6 6s-2.636 6-6 6m0-10c-2.28 0-4 1.72-4 4s1.72 4 4 4s4-1.72 4-4s-1.72-4-4-4"
			></path>
			<path
				fill="var(--fill, currentColor)"
				d="m27.547 12l1.733-1l-2.336-4.044a2 2 0 0 0-2.373-.894l-2.434.823a11.056 11.056 0 0 0-1.312-.758l-.503-2.52A2 2 0 0 0 18.36 2h-4.72a2 2 0 0 0-1.962 1.608l-.503 2.519c-.46.224-.906.469-1.327.753l-2.42-.818a2 2 0 0 0-2.373.894l-2.36 4.088a2 2 0 0 0 .412 2.502l1.931 1.697C5.021 15.495 5 15.745 5 16c0 .258.01.513.028.766l-1.92 1.688a2 2 0 0 0-.413 2.502l2.36 4.088a2 2 0 0 0 2.374.894l2.434-.823c.418.282.856.535 1.312.758l.503 2.519A2 2 0 0 0 13.64 30H16v-2h-2.36l-.71-3.55a9.096 9.096 0 0 1-2.695-1.572l-3.447 1.166l-2.36-4.088l2.725-2.395a8.929 8.929 0 0 1-.007-3.128l-2.719-2.39l2.361-4.087l3.427 1.16A9.027 9.027 0 0 1 12.93 7.55L13.64 4h4.721l.71 3.55a9.1 9.1 0 0 1 2.695 1.572l3.447-1.166z"
			></path>
		</symbol>

		<symbol viewBox="0 0 32 32" id="share">
			<path
				fill="var(--fill, currentColor)"
				d="M23 20a5 5 0 0 0-3.89 1.89l-7.31-4.57a4.46 4.46 0 0 0 0-2.64l7.31-4.57A5 5 0 1 0 18 7a4.79 4.79 0 0 0 .2 1.32l-7.31 4.57a5 5 0 1 0 0 6.22l7.31 4.57A4.79 4.79 0 0 0 18 25a5 5 0 1 0 5-5m0-16a3 3 0 1 1-3 3a3 3 0 0 1 3-3M7 19a3 3 0 1 1 3-3a3 3 0 0 1-3 3m16 9a3 3 0 1 1 3-3a3 3 0 0 1-3 3"
			></path>
		</symbol>

		<symbol viewBox="0 0 32 32" id="save">
			<path
				fill="var(--fill, currentColor)"
				d="m27.71 9.29l-5-5A1 1 0 0 0 22 4H6a2 2 0 0 0-2 2v20a2 2 0 0 0 2 2h20a2 2 0 0 0 2-2V10a1 1 0 0 0-.29-.71M12 6h8v4h-8Zm8 20h-8v-8h8Zm2 0v-8a2 2 0 0 0-2-2h-8a2 2 0 0 0-2 2v8H6V6h4v4a2 2 0 0 0 2 2h8a2 2 0 0 0 2-2V6.41l4 4V26Z"
			></path>
		</symbol>

		<symbol viewBox="0 0 32 32" id="view-alt">
			<circle cx="22" cy="24" r="2" fill="#888888"></circle>
			<path
				fill="var(--fill, currentColor)"
				d="M29.777 23.479A8.64 8.64 0 0 0 22 18a8.64 8.64 0 0 0-7.777 5.479L14 24l.223.522A8.64 8.64 0 0 0 22 30a8.64 8.64 0 0 0 7.777-5.478L30 24zM22 28a4 4 0 1 1 4-4a4.005 4.005 0 0 1-4 4M7 17h5v2H7zm0-5h12v2H7zm0-5h12v2H7z"
			></path>
			<path
				fill="var(--fill, currentColor)"
				d="M22 2H4a2.006 2.006 0 0 0-2 2v24a2.006 2.006 0 0 0 2 2h8v-2H4V4h18v11h2V4a2.006 2.006 0 0 0-2-2"
			></path>
		</symbol>

		<symbol viewBox="0 0 32 32" id="view">
			<path
				fill="var(--fill, currentColor)"
				d="M30.94 15.66A16.69 16.69 0 0 0 16 5A16.69 16.69 0 0 0 1.06 15.66a1 1 0 0 0 0 .68A16.69 16.69 0 0 0 16 27a16.69 16.69 0 0 0 14.94-10.66a1 1 0 0 0 0-.68M16 25c-5.3 0-10.9-3.93-12.93-9C5.1 10.93 10.7 7 16 7s10.9 3.93 12.93 9C26.9 21.07 21.3 25 16 25"
			></path>
			<path
				fill="var(--fill, currentColor)"
				d="M16 10a6 6 0 1 0 6 6a6 6 0 0 0-6-6m0 10a4 4 0 1 1 4-4a4 4 0 0 1-4 4"
			></path>
		</symbol>

		<symbol viewBox="0 0 32 32" id="view-off">
			<path
				fill="var(--fill, currentColor)"
				d="m5.24 22.51l1.43-1.42A14.06 14.06 0 0 1 3.07 16C5.1 10.93 10.7 7 16 7a12.38 12.38 0 0 1 4 .72l1.55-1.56A14.72 14.72 0 0 0 16 5A16.69 16.69 0 0 0 1.06 15.66a1 1 0 0 0 0 .68a16 16 0 0 0 4.18 6.17"
			></path>
			<path
				fill="var(--fill, currentColor)"
				d="M12 15.73a4 4 0 0 1 3.7-3.7l1.81-1.82a6 6 0 0 0-7.33 7.33zm18.94-.07a16.4 16.4 0 0 0-5.74-7.44L30 3.41L28.59 2L2 28.59L3.41 30l5.1-5.1A15.29 15.29 0 0 0 16 27a16.69 16.69 0 0 0 14.94-10.66a1 1 0 0 0 0-.68M20 16a4 4 0 0 1-6 3.44L19.44 14a4 4 0 0 1 .56 2m-4 9a13.05 13.05 0 0 1-6-1.58l2.54-2.54a6 6 0 0 0 8.35-8.35l2.87-2.87A14.54 14.54 0 0 1 28.93 16C26.9 21.07 21.3 25 16 25"
			></path>
		</symbol>

		<symbol viewBox="0 0 32 32" id="branch">
			<path
				fill="var(--fill, currentColor)"
				d="M26 18a3.996 3.996 0 0 0-3.858 3H18a3.003 3.003 0 0 1-3-3v-4a4.951 4.951 0 0 0-1.026-3h8.168a4 4 0 1 0 0-2H9.858a4 4 0 1 0 0 2H10a3.003 3.003 0 0 1 3 3v4a5.006 5.006 0 0 0 5 5h4.142A3.994 3.994 0 1 0 26 18m0-10a2 2 0 1 1-2 2a2.002 2.002 0 0 1 2-2M6 12a2 2 0 1 1 2-2a2.002 2.002 0 0 1-2 2m20 12a2 2 0 1 1 2-2a2.003 2.003 0 0 1-2 2"
			></path>
		</symbol>

		<symbol viewBox="0 0 32 32" id="up-outline">
			<path
				fill="var(--fill, currentColor)"
				d="M9.414 19.414L16 12.83l6.586 6.585L24 18l-8-8l-8 8z"
			></path>
			<path
				fill="var(--fill, currentColor)"
				d="M30 16c0 7.72-6.28 14-14 14S2 23.72 2 16S8.28 2 16 2s14 6.28 14 14M4 16c0 6.617 5.383 12 12 12s12-5.383 12-12S22.617 4 16 4S4 9.383 4 16"
			></path>
		</symbol>

		<symbol viewBox="0 0 32 32" id="columns">
			<path
				fill-rule="evenodd"
				fill="var(--fill, currentColor)"
				d="M14 4H4v8h10V4ZM6 6h6v4H6V6Zm8 10H4v12h10V16Zm-2 2H6v8h6v-8Zm6-14v12h10V4H18Zm2 2h6v8h-6V6Zm-2 22v-8h10v8H18Zm8-6h-6v4h6v-4Z"
				clip-rule="evenodd"
			/>
		</symbol>

		<symbol viewBox="0 0 32 32" id="grid">
			<path
				fill="var(--fill, currentColor)"
				d="M12 4H6a2 2 0 0 0-2 2v6a2 2 0 0 0 2 2h6a2 2 0 0 0 2-2V6a2 2 0 0 0-2-2m0 8H6V6h6zm14-8h-6a2 2 0 0 0-2 2v6a2 2 0 0 0 2 2h6a2 2 0 0 0 2-2V6a2 2 0 0 0-2-2m0 8h-6V6h6zm-14 6H6a2 2 0 0 0-2 2v6a2 2 0 0 0 2 2h6a2 2 0 0 0 2-2v-6a2 2 0 0 0-2-2m0 8H6v-6h6zm14-8h-6a2 2 0 0 0-2 2v6a2 2 0 0 0 2 2h6a2 2 0 0 0 2-2v-6a2 2 0 0 0-2-2m0 8h-6v-6h6z"
			></path>
		</symbol>
	</defs>
</svg>
