<svg
	xmlns="http://www.w3.org/2000/svg"
	xmlns:xlink="http://www.w3.org/1999/xlink"
>
	<defs>
		<symbol viewBox="0 0 32 32" id="add-large">
			<path
				fill="var(--fill, currentColor)"
				d="M17 15V5h-2v10H5v2h10v10h2V17h10v-2z"
			></path>
		</symbol>

		<symbol viewBox="0 0 32 32" id="trash-can">
			<path
				fill="var(--fill, currentColor)"
				d="M12 12h2v12h-2zm6 0h2v12h-2z"
			></path>
			<path
				fill="var(--fill, currentColor)"
				d="M4 6v2h2v20a2 2 0 0 0 2 2h16a2 2 0 0 0 2-2V8h2V6zm4 22V8h16v20zm4-26h8v2h-8z"
			></path>
		</symbol>

		<symbol viewBox="0 0 32 32" id="arrow-shift-down">
			<path
				fill="var(--fill, currentColor)"
				d="M23 6v10h5a1 1 0 0 1 .707 1.707l-12 12a1 1 0 0 1-1.414 0l-12-12A1 1 0 0 1 4 16h5V6a2.002 2.002 0 0 1 2-2h10a2.003 2.003 0 0 1 2 2m-7 21.586L25.586 18H21V6H11v12H6.414Z"
			></path>
		</symbol>

		<symbol viewBox="0 0 32 32" id="close-large">
			<path
				fill="var(--fill, currentColor)"
				d="M17.414 16L26 7.414L24.586 6L16 14.586L7.414 6L6 7.414L14.586 16L6 24.586L7.414 26L16 17.414L24.586 26L26 24.586z"
			></path>
		</symbol>

		<symbol viewBox="0 0 32 32" id="following">
			<path
				fill="var(--fill, currentColor)"
				d="M10 31H6c-.52995-.0016-1.03774-.2128-1.41247-.5875C4.2128 30.0377 4.00158 29.5299 4 29v-7c-.52995-.0016-1.03774-.2128-1.41247-.5875C2.2128 21.0377 2.00158 20.5299 2 20v-6c-.00719-.3959.0655-.7893.21372-1.1565.14822-.3672.36893-.7008.64895-.9808.28002-.28.6136-.5008.98083-.649.36722-.1482.76055-.2209 1.1565-.2137h6c.3959-.0072.7893.0655 1.1565.2137.3672.1482.7008.369.9808.649s.5008.6136.649.9808c.1482.3672.2209.7606.2137 1.1565v6c-.0016.5299-.2128 1.0377-.5875 1.4125-.3748.3747-.8826.5859-1.4125.5875v7c-.0016.5299-.2128 1.0377-.5875 1.4125-.3748.3747-.8826.5859-1.4125.5875ZM5 13c-.13342-.008-.26701.0124-.39197.0598-.12496.0474-.23844.1208-.33295.2153-.09451.0945-.16789.208-.21531.3329-.04742.125-.06779.2586-.05977.392v6h2v9h4v-9h2v-6c.008-.1334-.0124-.267-.0598-.392-.0474-.1249-.1208-.2384-.2153-.3329-.0945-.0945-.208-.1679-.3329-.2153-.125-.0474-.2586-.0678-.392-.0598H5Zm3-3c-.79113 0-1.56449-.23459-2.22228-.67412-.6578-.43953-1.17049-1.06424-1.47324-1.79514-.30275-.73091-.38196-1.53518-.22762-2.3111.15434-.77592.5353-1.48866 1.09471-2.04807.55941-.55941 1.27214-.94037 2.04807-1.09471.77592-.15434 1.58019-.07513 2.31109.22762.73087.30275 1.35557.81544 1.79517 1.47324C11.7654 4.43552 12 5.20888 12 6c-.0013 1.06046-.4232 2.07711-1.173 2.82697C10.0771 9.57683 9.06046 9.99868 8 10Zm0-6c-.39557 0-.78224.1173-1.11114.33706-.3289.21977-.58525.53212-.73662.89757-.15138.36546-.19098.76759-.11381 1.15555.07717.38796.26765.74433.54735 1.02404.27971.2797.63607.47018 1.02404.54735.38796.07717.79009.03757 1.15554-.11381.36546-.15137.67781-.40772.89758-.73662C9.8827 6.78224 10 6.39556 10 6c-.00053-.53027-.21142-1.03867-.58637-1.41363C9.03867 4.21142 8.53027 4.00053 8 4Z"
			/>
			<path
				fill="var(--fill, currentColor)"
				fill-rule="evenodd"
				d="M24.5716 6.83688 23 2l-1.5716 4.83688h-5.0858l4.1145 2.98936-1.5716 4.83686L23 11.6738l4.1145 2.9893-1.5716-4.83686 4.1145-2.98936h-5.0858Zm-.8981 1.23607L23 6l-.6735 2.07295h-2.1797l1.7634 1.28115-.6736 2.073L23 10.1459l1.7634 1.2812-.6736-2.073 1.7634-1.28115h-2.1797Z"
				clip-rule="evenodd"
			/>
		</symbol>

		<symbol viewBox="0 0 32 32" id="follows">
			<path
				fill="var(--fill, currentColor)"
				d="M10 31H6c-.52995-.0016-1.03774-.2128-1.41247-.5875C4.2128 30.0377 4.00158 29.5299 4 29v-7c-.52995-.0016-1.03774-.2128-1.41247-.5875C2.2128 21.0377 2.00158 20.5299 2 20v-6c-.00719-.3959.0655-.7893.21372-1.1565.14822-.3672.36893-.7008.64895-.9808.28002-.28.6136-.5008.98083-.649.36722-.1482.76055-.2209 1.1565-.2137h6c.3959-.0072.7893.0655 1.1565.2137.3672.1482.7008.369.9808.649s.5008.6136.649.9808c.1482.3672.2209.7606.2137 1.1565v6c-.0016.5299-.2128 1.0377-.5875 1.4125-.3748.3747-.8826.5859-1.4125.5875v7c-.0016.5299-.2128 1.0377-.5875 1.4125-.3748.3747-.8826.5859-1.4125.5875ZM5 13c-.13342-.008-.26701.0124-.39197.0598-.12496.0474-.23844.1208-.33295.2153-.09451.0945-.16789.208-.21531.3329-.04742.125-.06779.2586-.05977.392v6h2v9h4v-9h2v-6c.008-.1334-.0124-.267-.0598-.392-.0474-.1249-.1208-.2384-.2153-.3329-.0945-.0945-.208-.1679-.3329-.2153-.125-.0474-.2586-.0678-.392-.0598H5Zm3-3c-.79113 0-1.56449-.23459-2.22228-.67412-.6578-.43953-1.17049-1.06424-1.47324-1.79514-.30275-.73091-.38196-1.53518-.22762-2.3111.15434-.77592.5353-1.48866 1.09471-2.04807.55941-.55941 1.27214-.94037 2.04807-1.09471.77592-.15434 1.58019-.07513 2.31109.22762.73087.30275 1.35557.81544 1.79517 1.47324C11.7654 4.43552 12 5.20888 12 6c-.0013 1.06046-.4232 2.07711-1.173 2.82697C10.0771 9.57683 9.06046 9.99868 8 10Zm0-6c-.39557 0-.78224.1173-1.11114.33706-.3289.21977-.58525.53212-.73662.89757-.15138.36546-.19098.76759-.11381 1.15555.07717.38796.26765.74433.54735 1.02404.27971.2797.63607.47018 1.02404.54735.38796.07717.79009.03757 1.15554-.11381.36546-.15137.67781-.40772.89758-.73662C9.8827 6.78224 10 6.39556 10 6c-.00053-.53027-.21142-1.03867-.58637-1.41363C9.03867 4.21142 8.53027 4.00053 8 4Zm15 5c1.1046 0 2-.89543 2-2s-.8954-2-2-2-2 .89543-2 2 .8954 2 2 2Z"
			/>
			<path
				fill="var(--fill, currentColor)"
				fill-rule="evenodd"
				d="M30 7c0 2.76142-3.134 5-7 5s-7-2.23858-7-5 3.134-5 7-5 7 2.23858 7 5Zm-2.1539 0c0 2.07107-2.1697 3.75-4.8461 3.75-2.6765 0-4.8462-1.67893-4.8462-3.75 0-2.07107 2.1697-3.75 4.8462-3.75 2.6764 0 4.8461 1.67893 4.8461 3.75Z"
				clip-rule="evenodd"
			/>
		</symbol>

		<symbol viewBox="0 0 32 32" id="friendship">
			<path
				fill="var(--fill, currentColor)"
				d="M25 10H7a3.003 3.003 0 0 0-3 3v6a2.002 2.002 0 0 0 2 2v7a2.002 2.002 0 0 0 2 2h4a2.002 2.002 0 0 0 2-2V16h-2v12H8v-9H6v-6a1 1 0 0 1 1-1h18a1 1 0 0 1 1 1v6h-2v9h-4V16h-2v12a2.002 2.002 0 0 0 2 2h4a2.002 2.002 0 0 0 2-2v-7a2.002 2.002 0 0 0 2-2v-6a3.003 3.003 0 0 0-3-3M10 9a4 4 0 1 1 4-4a4.004 4.004 0 0 1-4 4m0-6a2 2 0 1 0 2 2a2.002 2.002 0 0 0-2-2m12 6a4 4 0 1 1 4-4a4.004 4.004 0 0 1-4 4m0-6a2 2 0 1 0 2 2a2.002 2.002 0 0 0-2-2"
			></path>
		</symbol>

		<symbol viewBox="0 0 24 24" id="login">
			<path
				fill="var(--fill, currentColor)"
				d="M10 11V8l5 4l-5 4v-3H1v-2zm-7.542 4h2.124A8.003 8.003 0 0 0 20 12A8 8 0 0 0 4.582 9H2.458C3.732 4.943 7.522 2 12 2c5.523 0 10 4.477 10 10s-4.477 10-10 10c-4.478 0-8.268-2.943-9.542-7"
			></path>
		</symbol>

		<symbol viewBox="0 0 24 24" id="logout">
			<path
				fill="var(--fill, currentColor)"
				d="M12 22C6.477 22 2 17.523 2 12S6.477 2 12 2a9.985 9.985 0 0 1 8 4h-2.71a8 8 0 1 0 .001 12h2.71A9.985 9.985 0 0 1 12 22m7-6v-3h-8v-2h8V8l5 4z"
			></path>
		</symbol>

		<symbol viewBox="0 0 32 32" id="settings">
			<path
				fill="var(--fill, currentColor)"
				d="M27 16.76v-1.53l1.92-1.68A2 2 0 0 0 29.3 11l-2.36-4a2 2 0 0 0-1.73-1a2 2 0 0 0-.64.1l-2.43.82a11.35 11.35 0 0 0-1.31-.75l-.51-2.52a2 2 0 0 0-2-1.61h-4.68a2 2 0 0 0-2 1.61l-.51 2.52a11.48 11.48 0 0 0-1.32.75l-2.38-.86A2 2 0 0 0 6.79 6a2 2 0 0 0-1.73 1L2.7 11a2 2 0 0 0 .41 2.51L5 15.24v1.53l-1.89 1.68A2 2 0 0 0 2.7 21l2.36 4a2 2 0 0 0 1.73 1a2 2 0 0 0 .64-.1l2.43-.82a11.35 11.35 0 0 0 1.31.75l.51 2.52a2 2 0 0 0 2 1.61h4.72a2 2 0 0 0 2-1.61l.51-2.52a11.48 11.48 0 0 0 1.32-.75l2.42.82a2 2 0 0 0 .64.1a2 2 0 0 0 1.73-1l2.28-4a2 2 0 0 0-.41-2.51ZM25.21 24l-3.43-1.16a8.86 8.86 0 0 1-2.71 1.57L18.36 28h-4.72l-.71-3.55a9.36 9.36 0 0 1-2.7-1.57L6.79 24l-2.36-4l2.72-2.4a8.9 8.9 0 0 1 0-3.13L4.43 12l2.36-4l3.43 1.16a8.86 8.86 0 0 1 2.71-1.57L13.64 4h4.72l.71 3.55a9.36 9.36 0 0 1 2.7 1.57L25.21 8l2.36 4l-2.72 2.4a8.9 8.9 0 0 1 0 3.13L27.57 20Z"
			></path>
			<path
				fill="var(--fill, currentColor)"
				d="M16 22a6 6 0 1 1 6-6a5.94 5.94 0 0 1-6 6m0-10a3.91 3.91 0 0 0-4 4a3.91 3.91 0 0 0 4 4a3.91 3.91 0 0 0 4-4a3.91 3.91 0 0 0-4-4"
			></path>
		</symbol>

		<symbol viewBox="0 0 32 32" id="settings-edit">
			<path
				fill="var(--fill, currentColor)"
				d="m31.707 19.293l-3-3a1 1 0 0 0-1.414 0L18 25.586V30h4.414l9.293-9.293a1 1 0 0 0 0-1.414M21.586 28H20v-1.586l5-5L26.586 23zM28 21.586L26.414 20L28 18.414L29.586 20zM16 22c-3.364 0-6-2.636-6-6s2.636-6 6-6s6 2.636 6 6s-2.636 6-6 6m0-10c-2.28 0-4 1.72-4 4s1.72 4 4 4s4-1.72 4-4s-1.72-4-4-4"
			></path>
			<path
				fill="var(--fill, currentColor)"
				d="m27.547 12l1.733-1l-2.336-4.044a2 2 0 0 0-2.373-.894l-2.434.823a11.056 11.056 0 0 0-1.312-.758l-.503-2.52A2 2 0 0 0 18.36 2h-4.72a2 2 0 0 0-1.962 1.608l-.503 2.519c-.46.224-.906.469-1.327.753l-2.42-.818a2 2 0 0 0-2.373.894l-2.36 4.088a2 2 0 0 0 .412 2.502l1.931 1.697C5.021 15.495 5 15.745 5 16c0 .258.01.513.028.766l-1.92 1.688a2 2 0 0 0-.413 2.502l2.36 4.088a2 2 0 0 0 2.374.894l2.434-.823c.418.282.856.535 1.312.758l.503 2.519A2 2 0 0 0 13.64 30H16v-2h-2.36l-.71-3.55a9.096 9.096 0 0 1-2.695-1.572l-3.447 1.166l-2.36-4.088l2.725-2.395a8.929 8.929 0 0 1-.007-3.128l-2.719-2.39l2.361-4.087l3.427 1.16A9.027 9.027 0 0 1 12.93 7.55L13.64 4h4.721l.71 3.55a9.1 9.1 0 0 1 2.695 1.572l3.447-1.166z"
			></path>
		</symbol>

		<symbol viewBox="0 0 32 32" id="share">
			<path
				fill="var(--fill, currentColor)"
				d="M23 20a5 5 0 0 0-3.89 1.89l-7.31-4.57a4.46 4.46 0 0 0 0-2.64l7.31-4.57A5 5 0 1 0 18 7a4.79 4.79 0 0 0 .2 1.32l-7.31 4.57a5 5 0 1 0 0 6.22l7.31 4.57A4.79 4.79 0 0 0 18 25a5 5 0 1 0 5-5m0-16a3 3 0 1 1-3 3a3 3 0 0 1 3-3M7 19a3 3 0 1 1 3-3a3 3 0 0 1-3 3m16 9a3 3 0 1 1 3-3a3 3 0 0 1-3 3"
			></path>
		</symbol>

		<symbol viewBox="0 0 32 32" id="save">
			<path
				fill="var(--fill, currentColor)"
				d="m27.71 9.29l-5-5A1 1 0 0 0 22 4H6a2 2 0 0 0-2 2v20a2 2 0 0 0 2 2h20a2 2 0 0 0 2-2V10a1 1 0 0 0-.29-.71M12 6h8v4h-8Zm8 20h-8v-8h8Zm2 0v-8a2 2 0 0 0-2-2h-8a2 2 0 0 0-2 2v8H6V6h4v4a2 2 0 0 0 2 2h8a2 2 0 0 0 2-2V6.41l4 4V26Z"
			></path>
		</symbol>

		<symbol viewBox="0 0 32 32" id="view-alt">
			<circle cx="22" cy="24" r="2" fill="#888888"></circle>
			<path
				fill="var(--fill, currentColor)"
				d="M29.777 23.479A8.64 8.64 0 0 0 22 18a8.64 8.64 0 0 0-7.777 5.479L14 24l.223.522A8.64 8.64 0 0 0 22 30a8.64 8.64 0 0 0 7.777-5.478L30 24zM22 28a4 4 0 1 1 4-4a4.005 4.005 0 0 1-4 4M7 17h5v2H7zm0-5h12v2H7zm0-5h12v2H7z"
			></path>
			<path
				fill="var(--fill, currentColor)"
				d="M22 2H4a2.006 2.006 0 0 0-2 2v24a2.006 2.006 0 0 0 2 2h8v-2H4V4h18v11h2V4a2.006 2.006 0 0 0-2-2"
			></path>
		</symbol>

		<symbol viewBox="0 0 32 32" id="view">
			<path
				fill="var(--fill, currentColor)"
				d="M30.94 15.66A16.69 16.69 0 0 0 16 5A16.69 16.69 0 0 0 1.06 15.66a1 1 0 0 0 0 .68A16.69 16.69 0 0 0 16 27a16.69 16.69 0 0 0 14.94-10.66a1 1 0 0 0 0-.68M16 25c-5.3 0-10.9-3.93-12.93-9C5.1 10.93 10.7 7 16 7s10.9 3.93 12.93 9C26.9 21.07 21.3 25 16 25"
			></path>
			<path
				fill="var(--fill, currentColor)"
				d="M16 10a6 6 0 1 0 6 6a6 6 0 0 0-6-6m0 10a4 4 0 1 1 4-4a4 4 0 0 1-4 4"
			></path>
		</symbol>

		<symbol viewBox="0 0 32 32" id="view-off">
			<path
				fill="var(--fill, currentColor)"
				d="m5.24 22.51l1.43-1.42A14.06 14.06 0 0 1 3.07 16C5.1 10.93 10.7 7 16 7a12.38 12.38 0 0 1 4 .72l1.55-1.56A14.72 14.72 0 0 0 16 5A16.69 16.69 0 0 0 1.06 15.66a1 1 0 0 0 0 .68a16 16 0 0 0 4.18 6.17"
			></path>
			<path
				fill="var(--fill, currentColor)"
				d="M12 15.73a4 4 0 0 1 3.7-3.7l1.81-1.82a6 6 0 0 0-7.33 7.33zm18.94-.07a16.4 16.4 0 0 0-5.74-7.44L30 3.41L28.59 2L2 28.59L3.41 30l5.1-5.1A15.29 15.29 0 0 0 16 27a16.69 16.69 0 0 0 14.94-10.66a1 1 0 0 0 0-.68M20 16a4 4 0 0 1-6 3.44L19.44 14a4 4 0 0 1 .56 2m-4 9a13.05 13.05 0 0 1-6-1.58l2.54-2.54a6 6 0 0 0 8.35-8.35l2.87-2.87A14.54 14.54 0 0 1 28.93 16C26.9 21.07 21.3 25 16 25"
			></path>
		</symbol>

		<symbol viewBox="0 0 32 32" id="branch">
			<path
				fill="var(--fill, currentColor)"
				d="M26 18a3.996 3.996 0 0 0-3.858 3H18a3.003 3.003 0 0 1-3-3v-4a4.951 4.951 0 0 0-1.026-3h8.168a4 4 0 1 0 0-2H9.858a4 4 0 1 0 0 2H10a3.003 3.003 0 0 1 3 3v4a5.006 5.006 0 0 0 5 5h4.142A3.994 3.994 0 1 0 26 18m0-10a2 2 0 1 1-2 2a2.002 2.002 0 0 1 2-2M6 12a2 2 0 1 1 2-2a2.002 2.002 0 0 1-2 2m20 12a2 2 0 1 1 2-2a2.003 2.003 0 0 1-2 2"
			></path>
		</symbol>

		<symbol viewBox="0 0 32 32" id="up-outline">
			<path
				fill="var(--fill, currentColor)"
				d="M9.414 19.414L16 12.83l6.586 6.585L24 18l-8-8l-8 8z"
			></path>
			<path
				fill="var(--fill, currentColor)"
				d="M30 16c0 7.72-6.28 14-14 14S2 23.72 2 16S8.28 2 16 2s14 6.28 14 14M4 16c0 6.617 5.383 12 12 12s12-5.383 12-12S22.617 4 16 4S4 9.383 4 16"
			></path>
		</symbol>

		<symbol viewBox="0 0 32 32" id="columns">
			<path
				fill="var(--fill, currentColor)"
				fill-rule="evenodd"
				d="M13 3H4v1H3v7h1v1h9v-1h1V4h-1V3Zm0 13H4v1H3v11h1v1h9v-1h1V17h-1v-1Zm5-12v11h1v1h9v-1h1V4h-1V3h-9v1h-1Zm0 24v-7h1v-1h9v1h1v7h-1v1h-9v-1h-1ZM5 5h7v5H5V5Zm22 17h-7v5h7v-5ZM20 5h7v9h-7V5Zm-8 13H5v9h7v-9Z"
				clip-rule="evenodd"
			/>
		</symbol>

		<symbol viewBox="0 0 32 32" id="grid">
			<path
				fill="var(--fill, currentColor)"
				d="M12 4H6a2 2 0 0 0-2 2v6a2 2 0 0 0 2 2h6a2 2 0 0 0 2-2V6a2 2 0 0 0-2-2m0 8H6V6h6zm14-8h-6a2 2 0 0 0-2 2v6a2 2 0 0 0 2 2h6a2 2 0 0 0 2-2V6a2 2 0 0 0-2-2m0 8h-6V6h6zm-14 6H6a2 2 0 0 0-2 2v6a2 2 0 0 0 2 2h6a2 2 0 0 0 2-2v-6a2 2 0 0 0-2-2m0 8H6v-6h6zm14-8h-6a2 2 0 0 0-2 2v6a2 2 0 0 0 2 2h6a2 2 0 0 0 2-2v-6a2 2 0 0 0-2-2m0 8h-6v-6h6z"
			></path>
		</symbol>
	</defs>
</svg>
