<svg
	xmlns="http://www.w3.org/2000/svg"
	xmlns:xlink="http://www.w3.org/1999/xlink"
>
	<defs>
		<symbol viewBox="0 0 32 32" id="add-large">
			<path fill="currentColor" d="M17 15V5h-2v10H5v2h10v10h2V17h10v-2z"></path>
		</symbol>
		<symbol viewBox="0 0 32 32" id="trash-can">
			<path
				fill="var(--fill, currentColor)"
				d="M12 12h2v12h-2zm6 0h2v12h-2z"
			></path>
			<path
				fill="var(--fill, currentColor)"
				d="M4 6v2h2v20a2 2 0 0 0 2 2h16a2 2 0 0 0 2-2V8h2V6zm4 22V8h16v20zm4-26h8v2h-8z"
			></path>
		</symbol>
		<symbol viewBox="0 0 32 32" id="arrow-shift-down">
			<path
				fill="var(--fill, currentColor)"
				d="M23 6v10h5a1 1 0 0 1 .707 1.707l-12 12a1 1 0 0 1-1.414 0l-12-12A1 1 0 0 1 4 16h5V6a2.002 2.002 0 0 1 2-2h10a2.003 2.003 0 0 1 2 2m-7 21.586L25.586 18H21V6H11v12H6.414Z"
			></path>
		</symbol>
		<symbol viewBox="0 0 32 32" id="close-large">
			<path
				fill="var(--fill, currentColor)"
				d="M17.414 16L26 7.414L24.586 6L16 14.586L7.414 6L6 7.414L14.586 16L6 24.586L7.414 26L16 17.414L24.586 26L26 24.586z"
			></path>
		</symbol>
		<symbol viewBox="0 0 32 32" id="friendship">
			<path
				fill="var(--fill, currentColor)"
				d="M25 10H7a3.003 3.003 0 0 0-3 3v6a2.002 2.002 0 0 0 2 2v7a2.002 2.002 0 0 0 2 2h4a2.002 2.002 0 0 0 2-2V16h-2v12H8v-9H6v-6a1 1 0 0 1 1-1h18a1 1 0 0 1 1 1v6h-2v9h-4V16h-2v12a2.002 2.002 0 0 0 2 2h4a2.002 2.002 0 0 0 2-2v-7a2.002 2.002 0 0 0 2-2v-6a3.003 3.003 0 0 0-3-3M10 9a4 4 0 1 1 4-4a4.004 4.004 0 0 1-4 4m0-6a2 2 0 1 0 2 2a2.002 2.002 0 0 0-2-2m12 6a4 4 0 1 1 4-4a4.004 4.004 0 0 1-4 4m0-6a2 2 0 1 0 2 2a2.002 2.002 0 0 0-2-2"
			></path>
		</symbol>
		<symbol viewBox="0 0 32 32" id="login">
			<path
				fill="var(--fill, currentColor)"
				d="M26 30H14a2 2 0 0 1-2-2v-3h2v3h12V4H14v3h-2V4a2 2 0 0 1 2-2h12a2 2 0 0 1 2 2v24a2 2 0 0 1-2 2"
			></path>
			<path
				fill="var(--fill, currentColor)"
				d="M14.59 20.59L18.17 17H4v-2h14.17l-3.58-3.59L16 10l6 6l-6 6z"
			></path>
		</symbol>
		<symbol viewBox="0 0 32 32" id="logout">
			<path
				fill="var(--fill, currentColor)"
				d="M6 30h12a2.002 2.002 0 0 0 2-2v-3h-2v3H6V4h12v3h2V4a2.002 2.002 0 0 0-2-2H6a2.002 2.002 0 0 0-2 2v24a2.002 2.002 0 0 0 2 2"
			></path>
			<path
				fill="var(--fill, currentColor)"
				d="M20.586 20.586L24.172 17H10v-2h14.172l-3.586-3.586L22 10l6 6l-6 6z"
			></path>
		</symbol>
		<symbol viewBox="0 0 32 32" id="settings">
			<path
				fill="var(--fill, currentColor)"
				d="M27 16.76v-1.53l1.92-1.68A2 2 0 0 0 29.3 11l-2.36-4a2 2 0 0 0-1.73-1a2 2 0 0 0-.64.1l-2.43.82a11.35 11.35 0 0 0-1.31-.75l-.51-2.52a2 2 0 0 0-2-1.61h-4.68a2 2 0 0 0-2 1.61l-.51 2.52a11.48 11.48 0 0 0-1.32.75l-2.38-.86A2 2 0 0 0 6.79 6a2 2 0 0 0-1.73 1L2.7 11a2 2 0 0 0 .41 2.51L5 15.24v1.53l-1.89 1.68A2 2 0 0 0 2.7 21l2.36 4a2 2 0 0 0 1.73 1a2 2 0 0 0 .64-.1l2.43-.82a11.35 11.35 0 0 0 1.31.75l.51 2.52a2 2 0 0 0 2 1.61h4.72a2 2 0 0 0 2-1.61l.51-2.52a11.48 11.48 0 0 0 1.32-.75l2.42.82a2 2 0 0 0 .64.1a2 2 0 0 0 1.73-1l2.28-4a2 2 0 0 0-.41-2.51ZM25.21 24l-3.43-1.16a8.86 8.86 0 0 1-2.71 1.57L18.36 28h-4.72l-.71-3.55a9.36 9.36 0 0 1-2.7-1.57L6.79 24l-2.36-4l2.72-2.4a8.9 8.9 0 0 1 0-3.13L4.43 12l2.36-4l3.43 1.16a8.86 8.86 0 0 1 2.71-1.57L13.64 4h4.72l.71 3.55a9.36 9.36 0 0 1 2.7 1.57L25.21 8l2.36 4l-2.72 2.4a8.9 8.9 0 0 1 0 3.13L27.57 20Z"
			></path>
			<path
				fill="var(--fill, currentColor)"
				d="M16 22a6 6 0 1 1 6-6a5.94 5.94 0 0 1-6 6m0-10a3.91 3.91 0 0 0-4 4a3.91 3.91 0 0 0 4 4a3.91 3.91 0 0 0 4-4a3.91 3.91 0 0 0-4-4"
			></path>
		</symbol>
		<symbol viewBox="0 0 32 32" id="settings-edit">
			<path
				fill="var(--fill, currentColor)"
				d="m31.707 19.293l-3-3a1 1 0 0 0-1.414 0L18 25.586V30h4.414l9.293-9.293a1 1 0 0 0 0-1.414M21.586 28H20v-1.586l5-5L26.586 23zM28 21.586L26.414 20L28 18.414L29.586 20zM16 22c-3.364 0-6-2.636-6-6s2.636-6 6-6s6 2.636 6 6s-2.636 6-6 6m0-10c-2.28 0-4 1.72-4 4s1.72 4 4 4s4-1.72 4-4s-1.72-4-4-4"
			></path>
			<path
				fill="var(--fill, currentColor)"
				d="m27.547 12l1.733-1l-2.336-4.044a2 2 0 0 0-2.373-.894l-2.434.823a11.056 11.056 0 0 0-1.312-.758l-.503-2.52A2 2 0 0 0 18.36 2h-4.72a2 2 0 0 0-1.962 1.608l-.503 2.519c-.46.224-.906.469-1.327.753l-2.42-.818a2 2 0 0 0-2.373.894l-2.36 4.088a2 2 0 0 0 .412 2.502l1.931 1.697C5.021 15.495 5 15.745 5 16c0 .258.01.513.028.766l-1.92 1.688a2 2 0 0 0-.413 2.502l2.36 4.088a2 2 0 0 0 2.374.894l2.434-.823c.418.282.856.535 1.312.758l.503 2.519A2 2 0 0 0 13.64 30H16v-2h-2.36l-.71-3.55a9.096 9.096 0 0 1-2.695-1.572l-3.447 1.166l-2.36-4.088l2.725-2.395a8.929 8.929 0 0 1-.007-3.128l-2.719-2.39l2.361-4.087l3.427 1.16A9.027 9.027 0 0 1 12.93 7.55L13.64 4h4.721l.71 3.55a9.1 9.1 0 0 1 2.695 1.572l3.447-1.166z"
			></path>
		</symbol>
		<symbol viewBox="0 0 32 32" id="share">
			<path
				fill="var(--fill, currentColor)"
				d="M23 20a5 5 0 0 0-3.89 1.89l-7.31-4.57a4.46 4.46 0 0 0 0-2.64l7.31-4.57A5 5 0 1 0 18 7a4.79 4.79 0 0 0 .2 1.32l-7.31 4.57a5 5 0 1 0 0 6.22l7.31 4.57A4.79 4.79 0 0 0 18 25a5 5 0 1 0 5-5m0-16a3 3 0 1 1-3 3a3 3 0 0 1 3-3M7 19a3 3 0 1 1 3-3a3 3 0 0 1-3 3m16 9a3 3 0 1 1 3-3a3 3 0 0 1-3 3"
			></path>
		</symbol>
	</defs>
</svg>
